# xmcd
#
# Track frame offsets: 
#        150
#        14935
#        25972
#        49410
#        67885
#        81960
#        100682
#        120982
#        135610
#        148172
#
# Disc length: 2182 seconds
#
# Revision: 0
# Processed by: cddbd v1.5.1PL2 Copyright (c) Steve Scherf et al.
# Submitted via: ExactAudioCopy v0.95b3
#
DISCID=8b08840a
DTITLE=Rodney Crowell - Above And Beyond
DYEAR=1996
DGENRE=General Country
TTITLE0=I Couldn't Leave You If I Tried
TTITLE1=Above And Beyond
TTITLE2=The Last Waltz
TTITLE3=Things I Wish I'd Said
TTITLE4=Brand New Rag
TTITLE5=Oh King Richard
TTITLE6=Let Freedom Ring
TTITLE7=She's Crazy For Leaving
TTITLE8=My Past Is Present
TTITLE9=You Been On My Mind
EXTD=
EXTT0=
EXTT1=
EXTT2=
EXTT3=
EXTT4=
EXTT5=
EXTT6=
EXTT7=
EXTT8=
EXTT9=
PLAYORDER=
